<svg xmlns="http://www.w3.org/2000/svg" width="48" height="48" fill="none" viewBox="0 0 48 48" id="check"><rect width="32" height="32" x="8" y="8" fill="#D0D7DF" rx="5"></rect><path fill="#754FFE" fill-rule="evenodd" d="M35.1817 15.7023C34.2453 14.7659 32.7272 14.7659 31.7909 15.7023L21.3497 26.1435C20.9591 26.534 20.326 26.534 19.9354 26.1435L16.0931 22.3011C15.1567 21.3648 13.6386 21.3648 12.7023 22.3011C11.7659 23.2375 11.7659 24.7556 12.7023 25.6919L18.6119 31.6016C18.6292 31.6202 18.6469 31.6385 18.6649 31.6566L19.2273 32.219C20.0084 33.0001 21.2747 33.0001 22.0558 32.219L35.1817 19.0931C36.118 18.1567 36.118 16.6386 35.1817 15.7023Z" clip-rule="evenodd"></path><path fill="#754FFE" fill-rule="evenodd" d="M7 13C7 9.68629 9.68629 7 13 7H35C38.3137 7 41 9.68629 41 13V35C41 38.3137 38.3137 41 35 41H13C9.68629 41 7 38.3137 7 35V13ZM13 9C10.7909 9 9 10.7909 9 13V35C9 37.2091 10.7909 39 13 39H35C37.2091 39 39 37.2091 39 35V13C39 10.7909 37.2091 9 35 9H13Z" clip-rule="evenodd"></path><path fill="#754FFE" fill-rule="evenodd" d="M34.4746 16.4094C33.9288 15.8635 33.0438 15.8635 32.498 16.4094L22.0568 26.8506C21.2757 27.6316 20.0094 27.6316 19.2283 26.8506L15.386 23.0082C14.8401 22.4624 13.9552 22.4624 13.4094 23.0082C12.8635 23.554 12.8635 24.439 13.4094 24.9848L19.3323 30.9078L19.3451 30.9215C19.3538 30.931 19.3628 30.9403 19.372 30.9495L19.9344 31.5119C20.325 31.9024 20.9581 31.9024 21.3486 31.5119L34.4746 18.386C35.0204 17.8401 35.0204 16.9552 34.4746 16.4094ZM31.0838 14.9952C32.4106 13.6683 34.5619 13.6683 35.8888 14.9952C37.2157 16.322 37.2157 18.4733 35.8888 19.8002L22.7629 32.9261C21.5913 34.0977 19.6918 34.0977 18.5202 32.9261L17.9579 32.3637C17.9578 32.3637 17.9579 32.3638 17.9579 32.3637C17.9358 32.3417 17.9141 32.3194 17.8929 32.2968L11.9952 26.399C10.6683 25.0722 10.6683 22.9209 11.9952 21.594C13.322 20.2671 15.4733 20.2671 16.8002 21.594L20.6426 25.4364L31.0838 14.9952Z" clip-rule="evenodd"></path></svg>